# xmcd
#
# Track frame offsets:
#	150
#	15300
#	31145
#	47045
#	66195
#	82050
#	94847
#	112495
#	127042
#	141819
#	155968
#	165157
#	181994
#	198467
#	213131
#
# Disc length: 3047 seconds
#
# Revision: 1
# Processed by: cddbd v1.5.2PL0 Copyright (c) Steve Scherf et al.
# Submitted via: audiograbber 1.82.01
#
DISCID=d10be50f
DTITLE=Jeff Porter - 15 Miles
DYEAR=2006
DGENRE=Country
TTITLE0=Savannah
TTITLE1=15 Miles
TTITLE2=Easy To Dream
TTITLE3=Call Me Any Name
TTITLE4=Darling Child
TTITLE5=Little Bit of White Trash
TTITLE6=The Road Behind Me
TTITLE7=Thinking of You
TTITLE8=Still She Waits
TTITLE9=Again
TTITLE10=I Don't Wear Hats
TTITLE11=Details of You
TTITLE12=Somebody's Son
TTITLE13=Time Machine
TTITLE14=A Day I Remember
EXTD=
EXTT0=
EXTT1=
EXTT2=
EXTT3=
EXTT4=
EXTT5=
EXTT6=
EXTT7=
EXTT8=
EXTT9=
EXTT10=
EXTT11=
EXTT12=
EXTT13=
EXTT14=
PLAYORDER=
